<svg xmlns="http://www.w3.org/2000/svg" viewBox="0 0 20.629 19.719"><path d="M20.58 4.43l-1.21 8.91c-.177.912-.95 1.587-1.88 1.637H6.61c-.927-.05-1.702-.725-1.88-1.636L3.26 3.056c-.093-.344-.137-.7-.13-1.055H1c-.552 0-1-.448-1-1s.448-1 1-1h4c.548-.006.997.432 1.004.98.006.518-.388.954-.904 1h13.97c1.1 0 1.77 1.13 1.51 2.45z"/><path fill="#EC573B" d="M6.73 12.945l-1.31-9h13.2l-.03.2-1.18 8.788c-.004.004-.008.01-.01.015H6.73v-.003z"/><path d="M7.25 15.956c1.035.003 1.87.845 1.868 1.88-.003 1.035-.845 1.87-1.88 1.868C6.205 19.7 5.37 18.86 5.37 17.83c0-1.036.84-1.875 1.874-1.875h.006zM16.25 15.956c1.035.003 1.87.845 1.867 1.88-.003 1.035-.845 1.87-1.88 1.868-1.032-.003-1.868-.843-1.868-1.875 0-1.036.84-1.875 1.874-1.875h.006z"/></svg>