<svg xmlns="http://www.w3.org/2000/svg" viewBox="0 0 20.625 19.719"><path d="M20.576 4.43l-1.2 8.91a2.033 2.033 0 0 1-1.882 1.636H6.61a2.028 2.028 0 0 1-1.88-1.635L3.263 3.055A3.668 3.668 0 0 1 3.125 2H1a1 1 0 0 1 0-2h4a1 1 0 0 1 1 1 .99.99 0 0 1-.9.978h13.965c1.107 0 1.775 1.132 1.51 2.45zM6.73 12.946l-1.312-9h13.206l-.03.2-1.187 8.788c-.008.01-.01.014 0 .014H6.73zm.516 3.01A1.874 1.874 0 1 1 5.37 17.83a1.874 1.874 0 0 1 1.876-1.874zm9 0a1.874 1.874 0 1 1-1.875 1.873 1.874 1.874 0 0 1 1.876-1.874z"/></svg>