<svg xmlns="http://www.w3.org/2000/svg" viewBox="0 0 20.629 19.719"><path d="M19.07 1.98H5.1c.516-.046.91-.482.904-1C5.997.432 5.548-.006 5 0H1C.448 0 0 .448 0 1s.448 1 1 1h2.13c-.007.356.037.71.13 1.055L4.73 13.34c.178.912.953 1.587 1.88 1.637h10.88c.93-.05 1.703-.725 1.88-1.637l1.21-8.91c.26-1.32-.41-2.45-1.51-2.45zm-.48 2.166l-1.18 8.788c-.005.004-.01.01-.01.015H6.73v-.004l-1.31-9h13.2l-.03.2zM7.25 15.956c1.035.003 1.87.845 1.868 1.88-.003 1.035-.845 1.87-1.88 1.868C6.205 19.7 5.37 18.86 5.37 17.83c0-1.036.84-1.875 1.874-1.875h.006zM16.25 15.956c1.035.003 1.87.845 1.867 1.88-.003 1.035-.845 1.87-1.88 1.868-1.032-.003-1.868-.843-1.868-1.875 0-1.036.84-1.875 1.874-1.875h.006z"/></svg>