<svg xmlns="http://www.w3.org/2000/svg" viewBox="0 0 47.406 47.38"><path d="M39.11 23.19a2.42 2.42 0 0 1-2.128 1.04 9.366 9.366 0 0 1-3.256-.84 17.086 17.086 0 0 1-1.576 8.35 5.2 5.2 0 0 1 .517 3.08c-.488 3.38-4.283 5.23-8.524 5.23s-8.018-1.85-8.48-5.23a5.164 5.164 0 0 1 .33-2.62 17.33 17.33 0 0 1-1.786-8.73 8.93 8.93 0 0 1-3.065.76 2.42 2.42 0 0 1-2.127-1.04 2.328 2.328 0 0 1-.162-2.22c.812-1.91 3.593-2.74 4.75-3.01l.1-.02c-1.4-2.9-.723-7.6-.2-9.19L16.56 9c.056 1 .766 2.88 3.436 5.01l1.585 1.09a12.922 12.922 0 0 1 2.4-.23 12.732 12.732 0 0 1 2.29.21l1.692-1.16c2.67-2.13 3.38-4.01 3.435-5.01l3.058-.26c.528 1.6 1.207 6.35-.224 9.24l.295.07c1.157.27 3.937 1.1 4.75 3.01a2.326 2.326 0 0 1-.166 2.22zm-25.07-3.28s-2.86.66-3.362 1.85 3.155-.14 3.835-.7a2.326 2.326 0 0 1-.473-1.15zm3.3.07c-1.752 2.75-1.578 7 .467 11.37l.367.78-.318.8a3.21 3.21 0 0 0-.208 1.62c.33 2.41 3.6 3.5 6.5 3.5s6.2-1.1 6.545-3.52a3.177 3.177 0 0 0-.33-1.9l-.416-.84.378-.86c1.878-4.25 1.97-8.37.244-11.02-1.3-1.99-3.576-3.04-6.588-3.04-3.05 0-5.35 1.07-6.645 3.11zm20.093 1.78c-.5-1.19-3.36-1.85-3.36-1.85a2.318 2.318 0 0 1-.475 1.15c.678.56 4.333 1.88 3.833.7zm-18.57-6.1s-3.6-2.48-3.735-5.02c-.4 2.18-.584 5.62.7 6.99a21 21 0 0 1 3.032-1.97zm10.232-.1s3.6-2.47 3.736-5.01c.4 2.17.585 5.61-.704 6.98a22.893 22.893 0 0 0-3.034-1.97zM23.717-.01a23.7 23.7 0 1 1-23.7 23.7A23.7 23.7 0 0 1 23.714-.01zm0 45.4a21.7 21.7 0 1 1 21.7-21.7 21.722 21.722 0 0 1-21.703 21.7z"/></svg>