<svg xmlns="http://www.w3.org/2000/svg" viewBox="0 0 47.406 47.38"><path d="M23.554 38.52a6.814 6.814 0 0 1-6.823-6.77 8.038 8.038 0 0 1 1.823-4.6V12.31a5 5 0 0 1 10 0v14.91a7.63 7.63 0 0 1 1.778 4.53 6.775 6.775 0 0 1-6.776 6.77zm0-2a4.8 4.8 0 0 1-4.8-4.77 5.237 5.237 0 0 1 1.845-3.78V12.31a3 3 0 0 1 6 0v15.72a5.092 5.092 0 0 1 1.753 3.72 4.8 4.8 0 0 1-4.8 4.77zm2.706-4.91A2.774 2.774 0 1 1 22.585 29V12.16a.95.95 0 0 1 1.9 0v16.87a2.765 2.765 0 0 1 1.775 2.58zm5.27-16.42h4a1 1 0 0 1 0 2h-4a1 1 0 0 1 0-2zm0-4h4a1 1 0 0 1 0 2h-4a1 1 0 0 1 0-2zm0 8h4a1 1 0 0 1 0 2h-4a1 1 0 0 1 0-2zm0 4h4a1 1 0 0 1 0 2h-4a1 1 0 0 1 0-2zM23.715-.01a23.7 23.7 0 1 1-23.7 23.7 23.7 23.7 0 0 1 23.7-23.7zm0 45.4a21.7 21.7 0 1 1 21.7-21.7 21.722 21.722 0 0 1-21.7 21.7z"/></svg>