<svg xmlns="http://www.w3.org/2000/svg" viewBox="0 0 153.094 63.25"><path d="M150.502 44.64c-1.742-1.856-4.228-2.08-7-2.08h-.236a13.544 13.544 0 0 0-8.977-4.4c-3.5-.228-6.364-.227-8.836.83.083-.67.152-1.546.21-2.225a4.276 4.276 0 0 0 1.634.21c3.068 0 6.287-2.583 6.567-8.247.133-3.125-.38-5.41-1.485-6.564a2.663 2.663 0 0 0-1.943-.867c-1.646 0-3.188 1.443-4.394 4.056 0-.286-.007-.54-.01-.77-.01-.478-.016-.872-.016-1.314 0-1.106-.053-1.732-1.137-1.732a1.533 1.533 0 0 0-1.08.48 2.56 2.56 0 0 0-.607 1.94c.027 1.383.032 2.784.017 4.28-.5 2.245-1.406 4.01-2.34 4.7a17.47 17.47 0 0 0 1.113-4.254c.416-3.023-.042-5.638-1.227-7a2.1 2.1 0 0 0-1.986-.82 3.606 3.606 0 0 0-2.11 1.26.94.94 0 0 0-1.25-.34c-2.582 1.02-4.223 4.026-4.39 8.037a8.056 8.056 0 0 0 1.885 5.99 4.312 4.312 0 0 0 3.153 1.4 4.586 4.586 0 0 0 3.656-2.165 4.578 4.578 0 0 0 3.352-2.005c-.12 2.493-.31 4.94-.566 7.3a17.973 17.973 0 0 0-5.192 6.54c-1.982 3.934-1.764 7.546-.722 9.24a2.032 2.032 0 0 0 1.677 1.113c3.09 0 5.57-8.574 6.778-16.015a14.87 14.87 0 0 1 8.433-1.97 11.58 11.58 0 0 1 6.81 2.184 8.433 8.433 0 0 0-5.887 7.093 5.582 5.582 0 0 0 1.123 4.43 4.185 4.185 0 0 0 3.51 1.395 6.062 6.062 0 0 0 4.353-2.008 8.59 8.59 0 0 0 1.85-6.372 9.2 9.2 0 0 0-.606-2.767c3.908.64 6.258 3.985 6.055 8.758a10.014 10.014 0 0 1-9.894 9.408c-3 0-5.2-.733-6.357-2.12a4.525 4.525 0 0 1-.872-3.772c.03-.144.058-.27.083-.378a1.043 1.043 0 0 0-.05-.95.644.644 0 0 0-.532-.238 1.733 1.733 0 0 0-.386.055 3.443 3.443 0 0 0-2.48 3.194c0 2.937 3.13 6.1 10 6.1 7.14 0 12.436-4.33 12.886-11.1a9.516 9.516 0 0 0-2.576-7.52zM115.544 24.1a12.458 12.458 0 0 0-.58 5.412 6.582 6.582 0 0 0 2.586 4.92 1.72 1.72 0 0 1-.858.256 1.7 1.7 0 0 1-1.183-.592 6.594 6.594 0 0 1-1.287-4.74 10.553 10.553 0 0 1 1.32-5.255zm4.38 4.74a9.742 9.742 0 0 1-1.007 4.13c-1.17-.72-1.665-2.5-1.726-3.915-.125-2.523.94-4.694 1.79-4.938a.34.34 0 0 1 .2.126c.47.498.902 2.148.745 4.597zm7.33 6.1a2.2 2.2 0 0 1-1.395-.392l.063-1.026c1.053-6.795 3.108-9.673 3.748-9.673a.316.316 0 0 1 .245.13c.457.487.87 2.162.657 5.4-.248 3.485-1.49 5.563-3.322 5.563zm-8.34 19.087a.425.425 0 0 1-.28-.232c-.485-.785-.56-3.245 1.22-6.806a15.333 15.333 0 0 1 2.142-3.215c-1.04 6.637-2.498 9.972-3.08 10.256zm22.625-2.78a2.76 2.76 0 0 1-2.04.917h-.105a2.408 2.408 0 0 1-1.9-.837 3.857 3.857 0 0 1-.583-3.126 5.928 5.928 0 0 1 4.95-5 7.024 7.024 0 0 1 1.012 3.343 6.342 6.342 0 0 1-1.335 4.71zm-30.7-14.2c-.707-.256-1.437-1.93-.9-8.44.287-3.708.406-5.852-.486-6.816a1.624 1.624 0 0 0-1.243-.51c-2.14 0-4.205 2.608-5.642 5.733a62.81 62.81 0 0 1 .46-6.927 10.828 10.828 0 0 0 5.12-5.162c1.818-3.574 1.583-7.38.41-9.294a2.047 2.047 0 0 0-1.662-1.146c-2.716 0-5.23 5.687-6.433 14.522a8.746 8.746 0 0 1-3.616.077 5.49 5.49 0 0 1-.89-.235 6.813 6.813 0 0 0 2.914-5.475 5.95 5.95 0 0 0-1.412-4.5 7.23 7.23 0 0 0-5.263-2.1c-.12 0-.24-.006-.36-.006-4.452 0-9.153 2.4-9.53 6.99-.385 4.035 3.193 6.386 6.653 8.66l.694.456c3.307 2.22 6.235 4.528 5.763 8.348-.383 3.136-4.333 5.66-8.542 5.333a7.314 7.314 0 0 1-5.2-2.563 6.728 6.728 0 0 1-1.433-5.144c.267-1.976 1.13-3.487 3.094-5.41a1.247 1.247 0 0 0 .507-1.26.774.774 0 0 0-.985-.382 8.416 8.416 0 0 0-3.02 1.228 7.592 7.592 0 0 0-2.285 5.182c-.237 4.214 1.93 9.557 8.814 10.745a12.47 12.47 0 0 0 2.09.178c5.607 0 10.064-3.777 10.37-8.787.27-4.7-3.352-7.338-6.772-9.45l-.375-.226c-3.318-2.01-6.453-3.908-5.965-7.635.385-2.85 3.11-4.126 5.637-4.126.178 0 .357.006.538.017 2.8.18 4.368 1.783 4.41 4.514a4.36 4.36 0 0 1-1.048 3.078 1.484 1.484 0 0 1-.984.5.982.982 0 0 1-.833-.66 3.925 3.925 0 0 1-.063-2.18l.08-.25a1.078 1.078 0 0 0 .04-1.033.64.64 0 0 0-.54-.255 1.824 1.824 0 0 0-.39.053 3.03 3.03 0 0 0-2.287 2.588c-.086 2.378 1.342 5.12 5.606 5.688a14.426 14.426 0 0 0 4.373-.04c-.272 2.5-.447 5.15-.52 7.89-.035 1.628-.062 2.583-.082 3.3-.03 1.082-.045 1.62-.045 3.076 0 1.246.184 1.688 1.222 1.688.57 0 1.547-.477 1.6-2.208 1.03-6.823 3.85-10.595 4.576-10.633a6.662 6.662 0 0 1-.06 2.078c-.1.95-.22 2.13-.25 3.55-.125 5.843 1.006 8.81 3.452 9.075 1.21.15 1.437-.4 1.482-.624a.98.98 0 0 0-.788-1.063zm-7.49-19.313c.975-6.274 2.444-9.84 2.99-10.085a.78.78 0 0 1 .29.408 8.868 8.868 0 0 1-.815 6.674 8.174 8.174 0 0 1-2.465 3.002zm-25.743 4.34l-.15-.19a.975.975 0 0 0-.822-.29c-.87 0-2.3.417-2.428 1.513-.12.765-.25 2.065-.342 3.452-.653 5.233-2.2 8.13-3.025 8.13a.924.924 0 0 1-.733-.342c-1.068-1.212-1.183-5.218-.34-11.9l.016-.272-.15-.173a.967.967 0 0 0-.775-.255c-.882 0-2.33.42-2.46 1.553a39.062 39.062 0 0 0-.19 6.828c-.593 1.9-1.922 4.984-4.317 4.984a2.365 2.365 0 0 1-1.7-.787 7.23 7.23 0 0 1-1.485-5.14c.162-3.7 1.283-6.605 2.554-6.605a.718.718 0 0 1 .66.286c.4.57.225 1.958-.154 3.028l-.085.227a1.106 1.106 0 0 0-.087 1.072.753.753 0 0 0 .9.215c.746-.14 2.27-.94 2.4-1.938a5.186 5.186 0 0 0-1.028-3.69 2.91 2.91 0 0 0-2.228-.92c-3.25 0-5.89 3.8-6.142 8.84-.01.322-.008.635 0 .94-.887 3.468-1.614 4.68-1.9 4.94-.238-.4-.552-2.323.432-7.49l.023-.278-.15-.173a1.1 1.1 0 0 0-.865-.277 2.166 2.166 0 0 0-2.285 1.415 7.63 7.63 0 0 0-.1.873l-.024.316c-.553 3.1-1.664 4.722-2.477 4.722a.7.7 0 0 1-.442-.28c-.668-.755-1.243-2.725-.93-5.267.41-3.415 1.8-5.71 3.45-5.71a1.2 1.2 0 0 1 1.006.332 2.29 2.29 0 0 1-.076 1.838l-.05.135a1.29 1.29 0 0 0-.116 1.23.818.818 0 0 0 .9.233c.75-.14 2.27-1.026 2.4-2.03a3.174 3.174 0 0 0-.82-2.4 3.753 3.753 0 0 0-2.864-1.056c-2.827 0-6.365 2.14-7.02 8.2-1.06 3.52-2.406 5.16-2.982 5.16-.762 0-1.956-2.253-2.253-7.256A51.587 51.587 0 0 0 43.72 14.93c.824-3.547 1.377-9.307.024-11.01a1.36 1.36 0 0 0-1.09-.56c-3.947 0-7.127 12.154-7.67 20.87a27.24 27.24 0 0 0 .06 4.036c-.885 4.186-2.55 6.852-3.316 6.852-.716 0-1.84-2.136-2.122-6.88a49.183 49.183 0 0 0 5.112-12.273c.786-3.384 1.31-8.88.018-10.508a1.32 1.32 0 0 0-1.057-.54c-3.775 0-6.813 11.588-7.33 19.9-.347 6.008 1.306 10.022 2.827 11.633a2.95 2.95 0 0 0 2.084 1.07c1.843 0 3.5-2.5 4.575-5.107.962 3.124 2.6 5.128 4.28 5.128 1.283 0 2.662-1.236 3.877-3.44.728 2.06 2.158 3.127 3.395 3.127.054 0 .108 0 .17-.007 1.18-.1 2.307-1.015 3.258-2.606.384 2.143 1.215 3.415 2.3 3.415 1.318 0 2.43-1.846 3.23-3.773a5.526 5.526 0 0 0 4.905 3.384c2.064 0 4.04-1.472 5.54-4.09.923 3.045 2.593 3.54 3.58 3.54s1.944-.713 2.813-2.05l-.03.277a29.31 29.31 0 0 0-5.63 9.63c-1.05 2.934-1.025 6.06.062 7.605a1.932 1.932 0 0 0 1.6.91c1.85 0 4.65-2.533 7.58-24.438.46-3.182.8-6.653.8-6.653zm-47.986 1.99c.36-6.166 2.416-14.456 3.45-15.847.29.88.34 4.073-.64 7.848a55.12 55.12 0 0 1-2.81 7.998zm8.742-.49c.36-6.57 2.574-15.467 3.662-16.825.32.862.4 4.25-.656 8.3a58.05 58.05 0 0 1-3.006 8.525zM72.63 39.167c-1.115 7.68-2.342 10.906-2.905 11.133a.516.516 0 0 1-.31-.25c-.466-.67-.614-2.33.368-4.974a35.7 35.7 0 0 1 2.847-5.91zm-13.05 2.2a1.143 1.143 0 0 0-.67-.317.758.758 0 0 0-.66.562 5.046 5.046 0 0 1-.244.473c-.598 1.077-2.534 1.627-5.756 1.627a88.106 88.106 0 0 1-13.18-1.5c-5.3-.9-11.343-1.86-16.307-2.207a105.26 105.26 0 0 0 2.024-15.684c0-.593-.9-.726-1.22-.726-.4 0-1.707.165-1.785 2.288l-.132 2.544c-.466 2.514-1.867 6.76-6.016 6.964-.093.005-.185.007-.277.007a5.248 5.248 0 0 1-4.08-1.842C9.31 31.332 8.48 27.187 9.06 22.467a25.264 25.264 0 0 1 1.08-4.794c6.622-.152 12.935-3.16 14.47-6.93a4.17 4.17 0 0 0-.194-3.95c-.9-1.34-2.717-1.934-4.95-1.635-4.624.6-9.214 4.48-11.788 9.94-2.91-.824-5.416-3.3-4.78-6.647.918-4.904 7.433-6.507 9.575-6.507a1.885 1.885 0 0 1 .626.07 2.67 2.67 0 0 0 .928.17 1.052 1.052 0 0 0 1.163-.66c.164-.72-.816-1.186-1.194-1.365a2.92 2.92 0 0 0-1.152-.172C9.924-.014 1.5 2.024.19 8.586a6.678 6.678 0 0 0 .916 5.222 9.34 9.34 0 0 0 5.666 3.55 23.972 23.972 0 0 0-1.224 5.5c-.54 4.97.538 9.364 2.956 12.06a8.38 8.38 0 0 0 6.408 2.82h.3a8.436 8.436 0 0 0 5.82-2.626 47.557 47.557 0 0 1-.822 4.79q-.544-.01-1.06-.01c-5.93 0-9.245 1.227-10.428 3.856a4.41 4.41 0 0 0 .28 4.364 6.276 6.276 0 0 0 5.22 2.765 5.958 5.958 0 0 0 .967-.08c3.22-.575 5.466-3.344 7.047-8.7a111.323 111.323 0 0 1 16.325 2.307c.975.2 1.958.412 2.94.62 5.34 1.138 10.385 2.21 14.054 2.21 2.11 0 3.572-.364 4.466-1.11a2.6 2.6 0 0 0 1.028-2.184 3.435 3.435 0 0 0-1.468-2.572zM15.494 48.2a3.357 3.357 0 0 1-1.092.19 2.614 2.614 0 0 1-2.33-1.3 2.948 2.948 0 0 1 .23-3.01c.542-.877 2.267-1.914 7.355-2-1.04 3.447-2.442 5.503-4.162 6.12zm3.33-40.607a4.79 4.79 0 0 1 .837-.08 1.728 1.728 0 0 1 1.5.616 2.406 2.406 0 0 1-.12 2.21c-1.31 2.743-6.05 4.725-10 5.038 1.948-4.166 5.017-7.258 7.784-7.785z"/></svg>