<svg xmlns="http://www.w3.org/2000/svg" viewBox="0 0 107.625 36.69"><path d="M44.412 26.75a2.025 2.025 0 0 0 .553-.1v1.33a3.2 3.2 0 0 1-1.175.21 1.665 1.665 0 0 1-1.66-.97 4.8 4.8 0 0 1-3.128 1.07c-1.5 0-2.9-.83-2.9-2.54 0-2.13 1.97-2.78 3.7-2.78a10.9 10.9 0 0 1 2.16.24v-.29c0-1.04-.76-1.77-2.177-1.77a7.36 7.36 0 0 0-2.99.64V20.1a10.024 10.024 0 0 1 3.18-.55c2.35 0 3.837 1.12 3.837 3.63v2.97a.537.537 0 0 0 .605.6m-6.412-1.12a1.353 1.353 0 0 0 1.555 1.23 3.365 3.365 0 0 0 2.4-.99v-1.4a9.994 9.994 0 0 0-1.8-.21c-1.054 0-2.16.33-2.16 1.37m12.305-6.08a4.944 4.944 0 0 1 2.558.64v1.69a4.075 4.075 0 0 0-2.3-.69 2.737 2.737 0 1 0-.034 5.46 4.985 4.985 0 0 0 2.418-.64v1.71a6.245 6.245 0 0 1-2.748.57 4.188 4.188 0 0 1-4.476-4.3 4.3 4.3 0 0 1 4.58-4.44m12.115 7.2a2.025 2.025 0 0 0 .552-.1v1.33a3.19 3.19 0 0 1-1.175.21 1.665 1.665 0 0 1-1.66-.97 4.8 4.8 0 0 1-3.127 1.07c-1.5 0-2.9-.83-2.9-2.54 0-2.13 1.97-2.78 3.7-2.78a10.9 10.9 0 0 1 2.16.24v-.29c0-1.04-.76-1.77-2.178-1.77a7.354 7.354 0 0 0-2.99.64V20.1a10.018 10.018 0 0 1 3.18-.55c2.35 0 3.837 1.12 3.837 3.63v2.97a.537.537 0 0 0 .604.6m-6.412-1.12a1.353 1.353 0 0 0 1.556 1.23 3.365 3.365 0 0 0 2.4-.99v-1.4a9.993 9.993 0 0 0-1.8-.21c-1.055 0-2.16.33-2.16 1.37m16.677-9.66v12.1h-1.66v-1.32a3.868 3.868 0 0 1-3.18 1.54 4.378 4.378 0 0 1 0-8.74 3.86 3.86 0 0 1 2.99 1.29v-4.87h1.85zm-4.51 5.2a2.756 2.756 0 0 0 0 5.5 2.88 2.88 0 0 0 2.643-1.75V22.9a2.9 2.9 0 0 0-2.644-1.73m10.508-1.62c3.3 0 4.442 2.66 3.906 5.06h-6.24c.21 1.49 1.66 2.11 3.18 2.11a6.013 6.013 0 0 0 2.628-.59v1.59a7.164 7.164 0 0 1-2.973.57c-2.54 0-4.7-1.45-4.7-4.37a4.155 4.155 0 0 1 4.2-4.37m.087 1.53a2.27 2.27 0 0 0-2.437 2.15h4.6a1.96 1.96 0 0 0-2.16-2.15m5.7 6.99v-8.3h1.64v1.04a3.8 3.8 0 0 1 2.764-1.26 2.816 2.816 0 0 1 2.592 1.33 4.09 4.09 0 0 1 2.9-1.33 3.042 3.042 0 0 1 3.144 3.33v5.19h-1.85v-5.14a1.578 1.578 0 0 0-1.64-1.74 2.775 2.775 0 0 0-2.057 1.12c.017.19.034.38.034.57v5.19h-1.848v-5.14a1.578 1.578 0 0 0-1.642-1.74 2.927 2.927 0 0 0-2.2 1.28v5.6h-1.85zm21.206-8.3h1.932l-3.888 9.42c-.9 2.16-2.074 2.89-3.336 2.89a5.1 5.1 0 0 1-1.09-.14v-1.58a2.772 2.772 0 0 0 .848.13c.9 0 1.573-.64 2.057-1.94l.173-.41-3.94-8.37h1.976l2.8 6.26zM38.544 1.44v4.72a3.782 3.782 0 0 1 2.678-1.14 3.23 3.23 0 0 1 3.422 3.39v5.13h-1.85V8.65a1.8 1.8 0 0 0-1.934-1.99 2.906 2.906 0 0 0-2.315 1.39v5.49h-1.85V1.44h1.85zm11.164.85v2.96h3.007v1.62h-3.005v3.8c0 1.09.5 1.45 1.573 1.45a4.6 4.6 0 0 0 1.676-.32v1.59a6.9 6.9 0 0 1-2.228.36 2.542 2.542 0 0 1-2.852-2.73V6.87h-1.488V5.25h1.486V2.74zm5.373 11.25V5.25h1.642v1.03a3.8 3.8 0 0 1 2.765-1.26 2.837 2.837 0 0 1 2.593 1.33 4.124 4.124 0 0 1 2.9-1.33 3.05 3.05 0 0 1 3.146 3.34v5.18h-1.85V8.41a1.585 1.585 0 0 0-1.643-1.75 2.787 2.787 0 0 0-2.056 1.13c.018.19.036.38.036.57v5.18h-1.85V8.41a1.585 1.585 0 0 0-1.642-1.75 2.956 2.956 0 0 0-2.2 1.28v5.6h-1.85zm15.754 0h1.85V1.44h-1.85v12.1zM14.637.02L14.485 0 0 1.52v26.55l14.485 8.61 14.484-8.61V1.52zm12.438 26.97l-12.59 7.49-12.59-7.49V16.11l12.536 7.46.022 1.35-8.6-5.12-.013 1.32 8.633 5.18.02 1.39-8.63-5.13-.012 1.31 8.634 5.19 8.716-5.22v-1.31h-.01v-4.29l3.884-2.31v11.06zm-.01-12.48l-3.445 2.03-1.59.94-7.582-4.51-.013 1.31 6.48 3.86-.056.03-.14.08-.92.54-5.352-3.18-.013 1.31 4.224 2.52-1 .66-.025.02-3.19-1.88-.013 1.31 2.094 1.23-2.133 1.28L1.92 14.65l12.49-7.51zm.01-1.32L14.417 5.73 1.9 13.18V3.23l12.588-1.32 12.59 1.32v9.96z"/></svg>